<?xml version="1.0" standalone="no"?><!DOCTYPE svg PUBLIC "-//W3C//DTD SVG 1.1//EN" "http://www.w3.org/Graphics/SVG/1.1/DTD/svg11.dtd"><svg t="1551445991118" class="icon" style="" viewBox="0 0 1024 1024" version="1.1" xmlns="http://www.w3.org/2000/svg" p-id="7861" id="mx_n_1551445991119" xmlns:xlink="http://www.w3.org/1999/xlink" width="64" height="64"><defs><style type="text/css"></style></defs><path d="M512 0C229.25 0 0 229.13 0 511.883c0 174.23 86.992 328.042 219.87 420.513 25.163-87.613 87.65-154.142 172.784-186.33-16.641 19.534 1.809 162.5 29.113 143.292l45.116-31.654 45-31.77-2.966-2.088-42.03-29.567-65.312-48.542a10.058 10.058 0 0 0-2.937-1.566c-0.18-0.063-0.355-0.096-0.53-0.138l-1.262 0.446a299.28 299.28 0 0 1 13.187-4.429c1.25-0.392 2.488-0.796 3.746-1.175a328.775 328.775 0 0 1 26.117-6.642c1.32-0.279 2.658-0.529 3.992-0.791a352.238 352.238 0 0 1 14.229-2.53c3.233-0.5 6.491-0.954 9.762-1.366 1.404-0.175 2.796-0.371 4.209-0.534a364.775 364.775 0 0 1 14.054-1.354h51.85c4.716 0.354 9.379 0.821 14.012 1.35 1.459 0.167 2.888 0.367 4.338 0.554a356.125 356.125 0 0 1 14.379 2.121c3.137 0.534 6.25 1.113 9.346 1.725 1.412 0.28 2.833 0.546 4.237 0.842 4.317 0.912 8.604 1.887 12.838 2.962l0.341 0.084a321.47 321.47 0 0 1 12.771 3.558c1.342 0.4 2.671 0.833 4.009 1.254 2.92 0.917 5.82 1.859 8.695 2.85 1.467 0.509 2.917 1.021 4.367 1.546-0.537-0.196-1.083-0.383-1.625-0.575-0.087 0.013-0.18 0.05-0.267 0.071-1.112 0.237-2.304 0.787-3.587 1.746l-64.842 48.541-42.15 29.571-2.966 2.084 45.116 31.77 45 31.655c27.484 19.333 45.713-125.696 28.442-143.675 85.637 32.029 148.512 98.716 173.787 186.65 132.821-92.48 219.771-246.263 219.771-420.446C1024 229.129 794.75 0 512 0z m0 725.542c-130.433 0-236.6-103.609-240.858-233.009-0.146-0.091-0.292-0.166-0.438-0.258-4.946-92.438 42.85-163.65 103.758-205.725 1.13-0.788 2.246-1.6 3.388-2.367 1.15-0.77 2.32-1.483 3.48-2.229 2.162-1.396 4.32-2.8 6.528-4.129 2.167-1.308 4.359-2.53 6.546-3.763 0.967-0.541 1.908-1.12 2.883-1.65 34.688-19.008 71.842-29.037 105.046-28.745 3.209-0.125 6.421-0.246 9.659-0.246 3.1 0 6.175 0.116 9.25 0.233 26.55-0.183 55.6 6.192 83.896 18.438a241 241 0 0 1 68.141 43.266c48.942 43.084 84.038 107.104 79.771 186.917l-0.2 0.117c-4.175 129.462-110.375 233.15-240.85 233.15z" fill="#F7B970" p-id="7862"></path><path d="M394.408 274.058c0.963-0.545 1.917-1.116 2.884-1.65-0.971 0.534-1.913 1.113-2.884 1.65z m126.842-30.404a243.183 243.183 0 0 0-9.25-0.233c-3.237 0-6.45 0.116-9.658 0.246 3.137 0.029 6.245 0.133 9.304 0.345a151.846 151.846 0 0 1 9.604-0.358z m-139.917 38.3c2.167-1.4 4.334-2.804 6.53-4.129-2.209 1.33-4.367 2.73-6.53 4.13z m-6.87 4.596c1.133-0.783 2.25-1.604 3.387-2.367-1.142 0.771-2.254 1.58-3.388 2.367z m230.679-24.458a259.988 259.988 0 0 1 68.141 43.266 241.096 241.096 0 0 0-68.141-43.266zM472.25 386.82c-46.313 81.296-124.787 153.329-201.108 105.712 4.254 129.4 110.425 233.009 240.858 233.009 130.475 0 236.675-103.688 240.858-233.15-63.745 39.783-230.979-17.846-280.608-105.571z" fill="#FCE9EA" p-id="7863"></path><path d="M597.138 735.208l0.341 0.084-0.341-0.084z m28.291 8.784c0.088-0.021 0.184-0.059 0.267-0.071 0.541 0.191 1.087 0.379 1.625 0.575a336.225 336.225 0 0 0-4.367-1.546c0.846 0.292 1.684 0.6 2.525 0.896-0.02 0.046-0.029 0.096-0.05 0.146z m-59.508-15.088z m14.141 2.5c1.413 0.28 2.834 0.546 4.238 0.842-1.404-0.296-2.825-0.563-4.237-0.842z m50.38 14.275c17.27 17.98-0.959 163.009-28.442 143.675L557 857.7l-45.117-31.77-45 31.77-45.116 31.654c-27.309 19.208-45.755-123.758-29.113-143.292-85.133 32.188-147.62 98.713-172.783 186.33 82.854 57.662 183.537 91.487 292.129 91.487 108.638 0 209.354-33.854 292.23-91.554-25.28-87.93-88.155-154.62-173.788-186.646z m-229.363-2.7c-1.42 0.488-2.833 0.988-4.242 1.496l1.263-0.446c0.175 0.042 0.35 0.08 0.53 0.138l-0.097-0.288c0.85-0.3 1.692-0.604 2.546-0.9z" fill="#D5E270" p-id="7864"></path><path d="M512 823.92c-1.038 0-2.058-0.053-3.087-0.078l2.966 2.087 2.967-2.083c-0.946 0.025-1.892 0.075-2.846 0.075z m98.25-85.074c1.342 0.4 2.67 0.833 4.008 1.254-1.337-0.42-2.666-0.854-4.008-1.254z m-156.767-9.183z m-13.596 2.566c1.321-0.279 2.659-0.529 3.992-0.792-1.329 0.263-2.667 0.513-3.992 0.792zM552 727.004c1.454 0.167 2.888 0.371 4.338 0.554-1.45-0.187-2.884-0.387-4.338-0.554z m-141.975 13.042c1.25-0.392 2.492-0.796 3.746-1.175-1.259 0.379-2.496 0.787-3.746 1.175z m57.85-12.504c1.404-0.175 2.796-0.371 4.208-0.534-1.412 0.163-2.804 0.359-4.208 0.534z" fill="#D5E270" p-id="7865"></path><path d="M514.85 823.85L557 794.28l64.842-48.542c1.287-0.955 2.479-1.509 3.587-1.746l0.054-0.146c-0.841-0.296-1.679-0.604-2.525-0.896a336.796 336.796 0 0 0-8.695-2.85c-1.338-0.42-2.667-0.854-4.009-1.254a323.458 323.458 0 0 0-12.77-3.559l-0.342-0.083a326.78 326.78 0 0 0-12.838-2.962c-1.404-0.296-2.825-0.563-4.237-0.842a352.492 352.492 0 0 0-14.138-2.504 338 338 0 0 0-9.587-1.342c-1.45-0.183-2.884-0.387-4.338-0.554a362.617 362.617 0 0 0-14.012-1.35h-51.85a365.575 365.575 0 0 0-14.055 1.354c-1.408 0.163-2.804 0.358-4.208 0.533-3.275 0.417-6.529 0.867-9.762 1.367a336.946 336.946 0 0 0-14.23 2.53c-1.329 0.262-2.666 0.512-3.991 0.791a326.988 326.988 0 0 0-26.117 6.642c-1.258 0.379-2.5 0.783-3.746 1.175a307.57 307.57 0 0 0-8.946 2.933c-0.854 0.292-1.695 0.6-2.545 0.9l0.095 0.287c0.925 0.292 1.9 0.796 2.938 1.567l65.313 48.542 42.029 29.566c1.029 0.025 2.05 0.08 3.087 0.08 0.95 0.004 1.896-0.046 2.846-0.067z" fill="#FEFEFE" p-id="7866"></path><path d="M472.25 386.82c49.63 87.726 216.863 145.355 280.608 105.572l0.2-0.117c4.267-79.813-30.825-143.833-79.77-186.917a260.054 260.054 0 0 0-68.142-43.266c-28.296-12.246-57.346-18.625-83.896-18.438-3.237 0.021-6.442 0.138-9.604 0.359 8.287 29.516-8.313 88.245-39.396 142.808z" fill="#ED7667" p-id="7867"></path><path d="M472.25 386.82c31.083-54.562 47.683-113.287 39.396-142.808a151.988 151.988 0 0 0-9.304-0.345c-33.205-0.292-70.359 9.737-105.046 28.745-0.967 0.53-1.921 1.105-2.884 1.65-2.187 1.234-4.379 2.455-6.545 3.763-2.196 1.325-4.363 2.73-6.53 4.13-1.158 0.745-2.329 1.462-3.479 2.228-1.141 0.763-2.258 1.584-3.387 2.367-60.917 42.075-108.713 113.287-103.767 205.725 0.146 0.092 0.292 0.167 0.438 0.258 76.32 47.617 154.795-24.416 201.108-105.712z" fill="#F08E83" p-id="7868"></path></svg>